<svg xmlns="http://www.w3.org/2000/svg" viewBox="0 0 800 1000" width="800" height="1000" preserveAspectRatio="xMidYMid meet">
  <rect width="800" height="1000" fill="#cfc9bb"/>
  <circle cx="400" cy="280" r="240" fill="#b7b2a6"/>
  <circle cx="400" cy="280" r="190" fill="#e4e0d6"/>
  <g fill="none" stroke="#8a867c" stroke-width="12">
    <path d="M400 90 C490 140 560 200 580 280 C560 360 490 420 400 470 C310 420 240 360 220 280 C240 200 310 140 400 90"/>
    <path d="M400 130 C470 170 520 220 535 280 C520 340 470 390 400 430 C330 390 280 340 265 280 C280 220 330 170 400 130"/>
  </g>
  <circle cx="400" cy="280" r="72" fill="#4a4946"/>
  <circle cx="372" cy="252" r="16" fill="#f7f4ee" opacity="0.75"/>
  <rect y="620" width="800" height="380" fill="#6f6b64"/>
</svg>
